<?xml version="1.0" standalone="no"?>
<svg xmlns:xlink="http://www.w3.org/1999/xlink" id="wave" style="transform:rotate(0deg); transition: 0.3s" viewBox="0 0 1440 420" version="1.1" xmlns="http://www.w3.org/2000/svg"><defs><linearGradient id="sw-gradient-0" x1="0" x2="0" y1="1" y2="0"><stop stop-color="rgba(243, 106, 62, 1)" offset="0%"/><stop stop-color="rgba(255, 179, 11, 1)" offset="100%"/></linearGradient></defs><path style="transform:translate(0, 0px); opacity:1" fill="url(#sw-gradient-0)" d="M0,84L24,98C48,112,96,140,144,175C192,210,240,252,288,245C336,238,384,182,432,140C480,98,528,70,576,105C624,140,672,238,720,259C768,280,816,224,864,168C912,112,960,56,1008,91C1056,126,1104,252,1152,308C1200,364,1248,350,1296,287C1344,224,1392,112,1440,119C1488,126,1536,252,1584,308C1632,364,1680,350,1728,350C1776,350,1824,364,1872,357C1920,350,1968,322,2016,301C2064,280,2112,266,2160,280C2208,294,2256,336,2304,357C2352,378,2400,378,2448,350C2496,322,2544,266,2592,259C2640,252,2688,294,2736,315C2784,336,2832,336,2880,301C2928,266,2976,196,3024,175C3072,154,3120,182,3168,175C3216,168,3264,126,3312,105C3360,84,3408,84,3432,84L3456,84L3456,420L3432,420C3408,420,3360,420,3312,420C3264,420,3216,420,3168,420C3120,420,3072,420,3024,420C2976,420,2928,420,2880,420C2832,420,2784,420,2736,420C2688,420,2640,420,2592,420C2544,420,2496,420,2448,420C2400,420,2352,420,2304,420C2256,420,2208,420,2160,420C2112,420,2064,420,2016,420C1968,420,1920,420,1872,420C1824,420,1776,420,1728,420C1680,420,1632,420,1584,420C1536,420,1488,420,1440,420C1392,420,1344,420,1296,420C1248,420,1200,420,1152,420C1104,420,1056,420,1008,420C960,420,912,420,864,420C816,420,768,420,720,420C672,420,624,420,576,420C528,420,480,420,432,420C384,420,336,420,288,420C240,420,192,420,144,420C96,420,48,420,24,420L0,420Z"/></svg>